<svg xmlns="http://www.w3.org/2000/svg" width="740" height="720" viewBox="0 0 740 720">
<rect width="740" height="720" fill="#141414"/>
<text x="20" y="28" font-family="Segoe UI, sans-serif" font-size="20" fill="#E6E6E6">uShader Phase 10 &#8212; color tokens</text>
<g>
<rect x="20" y="60" width="220" height="66" fill="#1E1E1E" stroke="#454545" stroke-width="1"/>
<text x="20" y="142" font-family="Consolas, monospace" font-size="13" fill="#9E9E9E">bg.app  #1E1E1E</text>
</g>
<g>
<rect x="260" y="60" width="220" height="66" fill="#232323" stroke="#454545" stroke-width="1"/>
<text x="260" y="142" font-family="Consolas, monospace" font-size="13" fill="#9E9E9E">bg.panel  #232323</text>
</g>
<g>
<rect x="500" y="60" width="220" height="66" fill="#2B2B2B" stroke="#454545" stroke-width="1"/>
<text x="500" y="142" font-family="Consolas, monospace" font-size="13" fill="#9E9E9E">bg.panel.raised  #2B2B2B</text>
</g>
<g>
<rect x="20" y="170" width="220" height="66" fill="#1B1B1B" stroke="#454545" stroke-width="1"/>
<text x="20" y="252" font-family="Consolas, monospace" font-size="13" fill="#9E9E9E">bg.field.sunken  #1B1B1B</text>
</g>
<g>
<rect x="260" y="170" width="220" height="66" fill="#000000" stroke="#454545" stroke-width="1"/>
<text x="260" y="252" font-family="Consolas, monospace" font-size="13" fill="#9E9E9E">bg.field.deepest  #000000</text>
</g>
<g>
<rect x="500" y="170" width="220" height="66" fill="#3D3D3D" stroke="#454545" stroke-width="1"/>
<text x="500" y="252" font-family="Consolas, monospace" font-size="13" fill="#9E9E9E">bg.hover  #3D3D3D</text>
</g>
<g>
<rect x="20" y="280" width="220" height="66" fill="#4A4A4A" stroke="#454545" stroke-width="1"/>
<text x="20" y="362" font-family="Consolas, monospace" font-size="13" fill="#9E9E9E">bg.active  #4A4A4A</text>
</g>
<g>
<rect x="260" y="280" width="220" height="66" fill="#000000" stroke="#454545" stroke-width="1"/>
<text x="260" y="362" font-family="Consolas, monospace" font-size="13" fill="#9E9E9E">border.hairline  #000000</text>
</g>
<g>
<rect x="500" y="280" width="220" height="66" fill="#454545" stroke="#454545" stroke-width="1"/>
<text x="500" y="362" font-family="Consolas, monospace" font-size="13" fill="#9E9E9E">border.subtle  #454545</text>
</g>
<g>
<rect x="20" y="390" width="220" height="66" fill="#2680EB" stroke="#454545" stroke-width="1"/>
<text x="20" y="472" font-family="Consolas, monospace" font-size="13" fill="#9E9E9E">accent  #2680EB</text>
</g>
<g>
<rect x="260" y="390" width="220" height="66" fill="#4B9EFF" stroke="#454545" stroke-width="1"/>
<text x="260" y="472" font-family="Consolas, monospace" font-size="13" fill="#9E9E9E">accent.hover  #4B9EFF</text>
</g>
<g>
<rect x="500" y="390" width="220" height="66" fill="#1B5FBD" stroke="#454545" stroke-width="1"/>
<text x="500" y="472" font-family="Consolas, monospace" font-size="13" fill="#9E9E9E">accent.active  #1B5FBD</text>
</g>
<g>
<rect x="20" y="500" width="220" height="66" fill="#E6E6E6" stroke="#454545" stroke-width="1"/>
<text x="20" y="582" font-family="Consolas, monospace" font-size="13" fill="#9E9E9E">text.primary  #E6E6E6</text>
</g>
<g>
<rect x="260" y="500" width="220" height="66" fill="#9E9E9E" stroke="#454545" stroke-width="1"/>
<text x="260" y="582" font-family="Consolas, monospace" font-size="13" fill="#9E9E9E">text.secondary  #9E9E9E</text>
</g>
<g>
<rect x="500" y="500" width="220" height="66" fill="#5C5C5C" stroke="#454545" stroke-width="1"/>
<text x="500" y="582" font-family="Consolas, monospace" font-size="13" fill="#9E9E9E">text.disabled  #5C5C5C</text>
</g>
<g>
<rect x="20" y="610" width="220" height="66" fill="#4CAF50" stroke="#454545" stroke-width="1"/>
<text x="20" y="692" font-family="Consolas, monospace" font-size="13" fill="#9E9E9E">status.ok  #4CAF50</text>
</g>
<g>
<rect x="260" y="610" width="220" height="66" fill="#E9A23B" stroke="#454545" stroke-width="1"/>
<text x="260" y="692" font-family="Consolas, monospace" font-size="13" fill="#9E9E9E">status.warning  #E9A23B</text>
</g>
<g>
<rect x="500" y="610" width="220" height="66" fill="#E5484D" stroke="#454545" stroke-width="1"/>
<text x="500" y="692" font-family="Consolas, monospace" font-size="13" fill="#9E9E9E">status.error  #E5484D</text>
</g>
</svg>