<svg xmlns="http://www.w3.org/2000/svg" width="1280" height="720" viewBox="0 0 1280 720" font-family="Segoe UI, sans-serif">
<rect width="1280" height="720" fill="#1E1E1E"/>
<rect x="0" y="0" width="1280" height="32" fill="#2B2B2B"/>
<circle cx="24" cy="16.0" r="7" fill="#2680EB"/>
<text x="40" y="21.0" font-size="13" fill="#9E9E9E">uShader 1.2.1.0</text>
<rect x="1142" y="0" width="46" height="32" fill="#2B2B2B" opacity="0.0"/>
<text x="1165" y="21.0" font-size="14" fill="#9E9E9E" text-anchor="middle">−</text>
<rect x="1188" y="0" width="46" height="32" fill="#2B2B2B" opacity="0.0"/>
<text x="1211" y="21.0" font-size="14" fill="#9E9E9E" text-anchor="middle">□</text>
<rect x="1234" y="0" width="46" height="32" fill="#E5484D" opacity="0.0"/>
<text x="1257" y="21.0" font-size="14" fill="#9E9E9E" text-anchor="middle">✕</text>
<rect x="0" y="32" width="1280" height="28" fill="#2B2B2B"/>
<circle cx="20" cy="46.0" r="6" fill="none" stroke="#9E9E9E" stroke-width="1.5"/>
<text x="34" y="51.0" font-size="13" fill="#9E9E9E">About</text>
<rect x="0.0" y="60" width="426.6666666666667" height="24" fill="#2B2B2B"/>
<rect x="8.0" y="60" width="80" height="24" fill="#2B2B2B"/>
<rect x="8.0" y="82" width="80" height="2" fill="#2680EB"/>
<text x="48.0" y="77.0" font-size="13" fill="#E6E6E6" text-anchor="middle">Source</text>
<rect x="0.0" y="84" width="426.6666666666667" height="636" fill="#232323" stroke="#000000" stroke-width="1"/>
<rect x="16.0" y="104" width="354.6666666666667" height="10" fill="#3D3D3D"/>
<rect x="16.0" y="122" width="304.6666666666667" height="10" fill="#3D3D3D"/>
<rect x="16.0" y="140" width="354.6666666666667" height="10" fill="#3D3D3D"/>
<rect x="16.0" y="158" width="304.6666666666667" height="10" fill="#3D3D3D"/>
<rect x="16.0" y="176" width="354.6666666666667" height="10" fill="#3D3D3D"/>
<rect x="16.0" y="194" width="304.6666666666667" height="10" fill="#3D3D3D"/>
<rect x="426.6666666666667" y="60" width="426.6666666666667" height="24" fill="#2B2B2B"/>
<rect x="434.6666666666667" y="60" width="80" height="24" fill="#2B2B2B"/>
<rect x="434.6666666666667" y="82" width="80" height="2" fill="#2680EB"/>
<text x="474.6666666666667" y="77.0" font-size="13" fill="#E6E6E6" text-anchor="middle">Golfed</text>
<rect x="426.6666666666667" y="84" width="426.6666666666667" height="636" fill="#232323" stroke="#000000" stroke-width="1"/>
<rect x="442.6666666666667" y="104" width="354.6666666666667" height="10" fill="#3D3D3D"/>
<rect x="442.6666666666667" y="122" width="304.6666666666667" height="10" fill="#3D3D3D"/>
<rect x="442.6666666666667" y="140" width="354.6666666666667" height="10" fill="#3D3D3D"/>
<rect x="442.6666666666667" y="158" width="304.6666666666667" height="10" fill="#3D3D3D"/>
<rect x="442.6666666666667" y="176" width="354.6666666666667" height="10" fill="#3D3D3D"/>
<rect x="442.6666666666667" y="194" width="304.6666666666667" height="10" fill="#3D3D3D"/>
<rect x="853.3333333333334" y="60" width="426.6666666666667" height="24" fill="#2B2B2B"/>
<rect x="861.3333333333334" y="60" width="80" height="24" fill="#2B2B2B"/>
<rect x="861.3333333333334" y="82" width="80" height="2" fill="#2680EB"/>
<text x="901.3333333333334" y="77.0" font-size="13" fill="#E6E6E6" text-anchor="middle">Viewport</text>
<rect x="853.3333333333334" y="84" width="426.6666666666667" height="636" fill="#000000" stroke="#000000" stroke-width="1"/>
<rect x="869.3333333333334" y="100" width="394.6666666666667" height="572" fill="#2680EB" opacity="0.15"/>
<circle cx="877.3333333333334" cy="696" r="4" fill="#4CAF50"/>
<text x="889.3333333333334" y="700" font-size="11" fill="#4CAF50">Compiled</text>
<text x="1264.0" y="700" font-size="11" fill="#9E9E9E" text-anchor="end" font-family="Consolas, monospace">00:03.42</text>
</svg>